:FULLY-SPECIFIED
:FORCE-ALL-JOINTS-BE-3DOF
:DEGREES
2446
root 2.43268 14.7525 -23.3609 929.518 83.0725 -150.214
lfemur -37.006 19.2147 -13.354
ltibia 74.3356 0 0
lfoot -25.2607 16.1315 0
ltoes -38.7561 0 0
rfemur -40.913 -22.3624 11.803
rtibia 63.0316 0 0
rfoot 7.05269 -2.75044 0
rtoes 0.780743 0 0
lowerback 15.9444 1.126 -3.90199
upperback -1.05169 1.04863 2.6134
thorax -10.0339 0.803982 4.83218
lowerneck 3.151 -13.4314 -15.2069
upperneck 1.39323 -18.6296 13.0979
head 2.56472 -9.39667 5.65178
lclavicle 7.95865e-15 -9.00105e-15 0
lhumerus -38.7343 -40.2368 109.524
lradius 103.882 0 0
lwrist 60.4204 0 0
lhand -1.74627 401.78 0
lfingers 7.12502 0 0
lthumb 23.7949 -651.117 0
rclavicle 7.95865e-15 -9.00105e-15 0
rhumerus 24.5987 11.3588 -61.0134
rradius 110.723 0 0
rwrist 4.55796 0 0
rhand -30.0357 -404.539 0
rfingers 7.12502 0 0
rthumb -3.35022 285.964 0
2447
root 2.49834 14.7452 -23.3785 929.304 83.0397 -150.246
lfemur -36.5606 19.4268 -13.3139
ltibia 74.4211 0 0
lfoot -25.574 16.2929 0
ltoes -38.6794 0 0
rfemur -41.056 -22.4161 11.4048
rtibia 61.9813 0 0
rfoot 7.63729 -2.26949 0
rtoes 1.24749 0 0
lowerback 15.9395 1.01125 -4.01084
upperback -1.05132 0.884166 2.69625
thorax -10.0226 0.734408 5.02632
lowerneck 3.14384 -13.4373 -15.2507
upperneck 1.52599 -18.6454 13.0494
head 2.60647 -9.4042 5.63655
lclavicle 8.15198e-15 -1.01768e-14 0
lhumerus -39.4804 -40.6241 109.89
lradius 104.317 0 0
lwrist 61.6707 0 0
lhand -0.673917 401.803 0
lfingers 7.12502 0 0
lthumb 24.8239 -651.205 0
rclavicle 8.15198e-15 -1.01768e-14 0
rhumerus 22.966 10.1102 -61.857
rradius 110.514 0 0
rwrist 6.81707 0 0
rhand -30.7578 -404.738 0
rfingers 7.12502 0 0
rthumb -4.04718 285.763 0
2448
root 2.56401 14.7379 -23.3962 929.09 83.0069 -150.278
lfemur -36.1153 19.6389 -13.2738
ltibia 74.5066 0 0
lfoot -25.8873 16.4543 0
ltoes -38.6028 0 0
rfemur -41.199 -22.4698 11.0067
rtibia 60.9311 0 0
rfoot 8.2219 -1.78853 0
rtoes 1.71424 0 0
lowerback 15.9346 0.896501 -4.11969
upperback -1.05095 0.719699 2.7791
thorax -10.0112 0.664833 5.22046
lowerneck 3.13668 -13.4431 -15.2944
upperneck 1.65875 -18.6611 13.0008
head 2.64822 -9.41173 5.62132
lclavicle 8.34531e-15 -1.13525e-14 0
lhumerus -40.2266 -41.0113 110.257
lradius 104.753 0 0
lwrist 62.9211 0 0
lhand 0.398434 401.825 0
lfingers 7.12502 0 0
lthumb 25.8528 -651.293 0
rclavicle 8.34531e-15 -1.13525e-14 0
rhumerus 21.3333 8.86158 -62.7006
rradius 110.305 0 0
rwrist 9.07617 0 0
rhand -31.48 -404.937 0
rfingers 7.12502 0 0
rthumb -4.74414 285.563 0
2449
root 2.62967 14.7306 -23.4139 928.876 82.9742 -150.31
lfemur -35.67 19.851 -13.2336
ltibia 74.5921 0 0
lfoot -26.2006 16.6157 0
ltoes -38.5262 0 0
rfemur -41.342 -22.5235 10.6085
rtibia 59.8809 0 0
rfoot 8.80651 -1.30757 0
rtoes 2.18099 0 0
lowerback 15.9297 0.781754 -4.22854
upperback -1.05057 0.555232 2.86195
thorax -9.9999 0.595258 5.41461
lowerneck 3.12952 -13.449 -15.3381
upperneck 1.79151 -18.6769 12.9523
head 2.68996 -9.41926 5.60609
lclavicle 8.53864e-15 -1.25283e-14 0
lhumerus -40.9727 -41.3985 110.623
lradius 105.189 0 0
lwrist 64.1714 0 0
lhand 1.47079 401.847 0
lfingers 7.12502 0 0
lthumb 26.8818 -651.38 0
rclavicle 8.53864e-15 -1.25283e-14 0
rhumerus 19.7006 7.61295 -63.5441
rradius 110.096 0 0
rwrist 11.3353 0 0
rhand -32.2022 -405.136 0
rfingers 7.12502 0 0
rthumb -5.4411 285.362 0
2450
root 2.69534 14.7234 -23.4316 928.663 82.9414 -150.342
lfemur -35.2246 20.0631 -13.1935
ltibia 74.6777 0 0
lfoot -26.5138 16.7771 0
ltoes -38.4496 0 0
rfemur -41.485 -22.5773 10.2104
rtibia 58.8306 0 0
rfoot 9.39112 -0.826617 0
rtoes 2.64773 0 0
lowerback 15.9248 0.667006 -4.33739
upperback -1.0502 0.390765 2.9448
thorax -9.98855 0.525684 5.60875
lowerneck 3.12236 -13.4548 -15.3818
upperneck 1.92427 -18.6927 12.9037
head 2.73171 -9.42679 5.59086
lclavicle 8.73197e-15 -1.3704e-14 0
lhumerus -41.7189 -41.7858 110.99
lradius 105.625 0 0
lwrist 65.4217 0 0
lhand 2.54314 401.869 0
lfingers 7.12502 0 0
lthumb 27.9107 -651.468 0
rclavicle 8.73197e-15 -1.3704e-14 0
rhumerus 18.0679 6.36432 -64.3877
rradius 109.887 0 0
rwrist 13.5944 0 0
rhand -32.9243 -405.334 0
rfingers 7.12502 0 0
rthumb -6.13806 285.162 0
2451
root 2.76101 14.7161 -23.4493 928.449 82.9086 -150.374
lfemur -34.7793 20.2752 -13.1534
ltibia 74.7632 0 0
lfoot -26.8271 16.9384 0
ltoes -38.373 0 0
rfemur -41.628 -22.631 9.81221
rtibia 57.7804 0 0
rfoot 9.97572 -0.345661 0
rtoes 3.11448 0 0
lowerback 15.9199 0.552259 -4.44625
upperback -1.04983 0.226298 3.02765
thorax -9.9772 0.456109 5.80289
lowerneck 3.1152 -13.4607 -15.4256
upperneck 2.05703 -18.7084 12.8552
head 2.77346 -9.43432 5.57563
lclavicle 8.9253e-15 -1.48797e-14 0
lhumerus -42.465 -42.173 111.356
lradius 106.06 0 0
lwrist 66.672 0 0
lhand 3.61549 401.892 0
lfingers 7.12502 0 0
lthumb 28.9397 -651.556 0
rclavicle 8.9253e-15 -1.48797e-14 0
rhumerus 16.4352 5.11569 -65.2313
rradius 109.678 0 0
rwrist 15.8535 0 0
rhand -33.6465 -405.533 0
rfingers 7.12502 0 0
rthumb -6.83501 284.961 0
2452
root 2.82667 14.7088 -23.467 928.235 82.8759 -150.406
lfemur -34.334 20.4873 -13.1133
ltibia 74.8487 0 0
lfoot -27.1404 17.0998 0
ltoes -38.2964 0 0
rfemur -41.771 -22.6847 9.41406
rtibia 56.7302 0 0
rfoot 10.5603 0.135295 0
rtoes 3.58123 0 0
lowerback 15.915 0.437511 -4.5551
upperback -1.04946 0.0618315 3.1105
thorax -9.96585 0.386535 5.99703
lowerneck 3.10804 -13.4665 -15.4693
upperneck 2.18979 -18.7242 12.8066
head 2.81521 -9.44185 5.5604
lclavicle 9.11863e-15 -1.60555e-14 0
lhumerus -43.2112 -42.5603 111.723
lradius 106.496 0 0
lwrist 67.9224 0 0
lhand 4.68784 401.914 0
lfingers 7.12502 0 0
lthumb 29.9686 -651.643 0
rclavicle 9.11863e-15 -1.60555e-14 0
rhumerus 14.8025 3.86706 -66.0749
rradius 109.469 0 0
rwrist 18.1126 0 0
rhand -34.3687 -405.732 0
rfingers 7.12502 0 0
rthumb -7.53197 284.761 0
2453
root 2.89234 14.7015 -23.4846 928.022 82.8431 -150.438
lfemur -33.8886 20.6994 -13.0732
ltibia 74.9343 0 0
lfoot -27.4536 17.2612 0
ltoes -38.2197 0 0
rfemur -41.914 -22.7384 9.01591
rtibia 55.68 0 0
rfoot 11.1449 0.616251 0
rtoes 4.04798 0 0
lowerback 15.9101 0.322764 -4.66395
upperback -1.04909 -0.102635 3.19335
thorax -9.95451 0.31696 6.19117
lowerneck 3.10088 -13.4724 -15.513
upperneck 2.32255 -18.74 12.758
head 2.85696 -9.44938 5.54517
lclavicle 9.31196e-15 -1.72312e-14 0
lhumerus -43.9573 -42.9475 112.089
lradius 106.932 0 0
lwrist 69.1727 0 0
lhand 5.76019 401.936 0
lfingers 7.12502 0 0
lthumb 30.9975 -651.731 0
rclavicle 9.31196e-15 -1.72312e-14 0
rhumerus 13.1698 2.61843 -66.9185
rradius 109.26 0 0
rwrist 20.3717 0 0
rhand -35.0909 -405.931 0
rfingers 7.12502 0 0
rthumb -8.22893 284.561 0
2454
root 2.95801 14.6942 -23.5023 927.808 82.8103 -150.47
lfemur -33.4433 20.9115 -13.033
ltibia 75.0198 0 0
lfoot -27.7669 17.4226 0
ltoes -38.1431 0 0
rfemur -42.057 -22.7921 8.61777
rtibia 54.6297 0 0
rfoot 11.7295 1.09721 0
rtoes 4.51473 0 0
lowerback 15.9052 0.208016 -4.7728
upperback -1.04872 -0.267102 3.2762
thorax -9.94316 0.247386 6.38532
lowerneck 3.09372 -13.4782 -15.5567
upperneck 2.45531 -18.7557 12.7095
head 2.89871 -9.45691 5.52994
lclavicle 9.50529e-15 -1.84069e-14 0
lhumerus -44.7035 -43.3348 112.456
lradius 107.368 0 0
lwrist 70.423 0 0
lhand 6.83254 401.958 0
lfingers 7.12502 0 0
lthumb 32.0265 -651.819 0
rclavicle 9.50529e-15 -1.84069e-14 0
rhumerus 11.5371 1.3698 -67.762
rradius 109.051 0 0
rwrist 22.6308 0 0
rhand -35.813 -406.13 0
rfingers 7.12502 0 0
rthumb -8.92589 284.36 0
